<svg xmlns="http://www.w3.org/2000/svg" xmlns:xlink="http://www.w3.org/1999/xlink"><symbol id="delete" viewBox="0 0 20 26"><g fill="none"><desc>Created with Pixso.</desc><path id="Vector" d="M1.42859 23.1111C1.42859 24.7 2.71423 26 4.28577 26L15.7142 26C17.2858 26 18.5714 24.7 18.5714 23.1111L18.5714 5.77777L1.42859 5.77777L1.42859 23.1111ZM4.28577 8.66666L15.7142 8.66666L15.7142 23.1111L4.28577 23.1111L4.28577 8.66666ZM15 1.44446L13.5714 0L6.42859 0L5 1.44446L0 1.44446L0 4.33334L20 4.33334L20 1.44446L15 1.44446Z" fill="currentColor" fill-opacity="1.000000" fill-rule="nonzero"/></g></symbol><symbol id="rename" viewBox="0 0 20 18.25"><g fill="none"><desc>Created with Pixso.</desc><path id="Vector" d="M8 18.25L12 14.25L20 14.25L20 18.25L8 18.25ZM2 16.25L3.39999 16.25L12.025 7.625L10.625 6.22501L2 14.85L2 16.25ZM16.3 6.175L12.05 1.97501L13.45 0.574997C13.8333 0.191666 14.3043 0 14.863 0C15.421 0 15.8917 0.191666 16.275 0.574997L17.675 1.97501C18.0583 2.35834 18.2583 2.821 18.275 3.36301C18.2917 3.90433 18.1083 4.36667 17.725 4.75L16.3 6.175ZM14.85 7.64999L4.25 18.25L0 18.25L0 14L10.6 3.39999L14.85 7.64999ZM11.325 6.925L10.625 6.22501L12.025 7.625L11.325 6.925Z" fill="currentColor" fill-opacity="1.000000" fill-rule="nonzero"/></g></symbol></svg>